# xmcd
#
# Track frame offsets: 
#        150
#        16232
#        31454
#        45864
#        65019
#        78281
#        97512
#        115159
#        132850
#        150550
#        167856
#        180380
#        194811
#        214634
#        229062
#
# Disc length: 3268 seconds
#
# Revision: 0
# Processed by: cddbd v1.5.2PL0 Copyright (c) Steve Scherf et al.
# Submitted via: ExactAudioCopy v0.99pb5
#
DISCID=b60cc20f
DTITLE=The Fabulous Bender Boys - Partners, Brothers and Friends
DYEAR=2011
DGENRE=Country
TTITLE0=Take Me On Back
TTITLE1=Gimme Back My Heart
TTITLE2=Shoot Down That Whiskey
TTITLE3=Behind The Bottle
TTITLE4=Bender Breakdown
TTITLE5=Turn It On Up
TTITLE6=Anything Left For Me
TTITLE7=Sweet Lovin' Woman
TTITLE8=Before
TTITLE9=Believe In Me
TTITLE10=Drive
TTITLE11=Hillbilly Hottie
TTITLE12=Beer Pressure
TTITLE13=Same Shift, Different Day
TTITLE14=Bender The Strangs
EXTD=
EXTT0=
EXTT1=
EXTT2=
EXTT3=
EXTT4=
EXTT5=
EXTT6=
EXTT7=
EXTT8=
EXTT9=
EXTT10=
EXTT11=
EXTT12=
EXTT13=
EXTT14=
PLAYORDER=
